<mxfile host="65bd71144e">
    <diagram id="B5hvTajtP3n7r4fV_qKo" name="Página-1">
        <mxGraphModel dx="1505" dy="1000" grid="1" gridSize="10" guides="1" tooltips="1" connect="1" arrows="1" fold="1" page="1" pageScale="1" pageWidth="827" pageHeight="1169" math="0" shadow="0">
            <root>
                <mxCell id="0"/>
                <mxCell id="1" parent="0"/>
                <mxCell id="-mRNOfv_80mKuR-ORZKl-20" value="" style="rounded=0;whiteSpace=wrap;html=1;dashed=1;strokeColor=#FF3333;strokeWidth=3;fillColor=none;" parent="1" vertex="1">
                    <mxGeometry x="754.1199999999999" y="57" width="125.88" height="140" as="geometry"/>
                </mxCell>
                <mxCell id="-mRNOfv_80mKuR-ORZKl-17" value="" style="rounded=0;whiteSpace=wrap;html=1;dashed=1;strokeColor=#FF3333;strokeWidth=3;fillColor=none;" parent="1" vertex="1">
                    <mxGeometry x="90" y="88" width="220" height="372" as="geometry"/>
                </mxCell>
                <mxCell id="-mRNOfv_80mKuR-ORZKl-19" value="" style="rounded=0;whiteSpace=wrap;html=1;dashed=1;strokeColor=#FF3333;strokeWidth=3;fillColor=none;" parent="1" vertex="1">
                    <mxGeometry x="541.06" y="50" width="160" height="170" as="geometry"/>
                </mxCell>
                <mxCell id="-mRNOfv_80mKuR-ORZKl-49" style="edgeStyle=orthogonalEdgeStyle;rounded=0;orthogonalLoop=1;jettySize=auto;html=1;entryX=0;entryY=0.75;entryDx=0;entryDy=0;" parent="1" source="-mRNOfv_80mKuR-ORZKl-2" target="-mRNOfv_80mKuR-ORZKl-12" edge="1">
                    <mxGeometry relative="1" as="geometry"/>
                </mxCell>
                <mxCell id="-mRNOfv_80mKuR-ORZKl-2" value="BOTÃO ACESSAR ALUNOS&lt;br&gt;" style="rounded=1;whiteSpace=wrap;html=1;" parent="1" vertex="1">
                    <mxGeometry x="110" y="110" width="180" height="50" as="geometry"/>
                </mxCell>
                <mxCell id="-mRNOfv_80mKuR-ORZKl-24" style="edgeStyle=orthogonalEdgeStyle;rounded=0;orthogonalLoop=1;jettySize=auto;html=1;entryX=0;entryY=0.25;entryDx=0;entryDy=0;" parent="1" source="-mRNOfv_80mKuR-ORZKl-3" target="-mRNOfv_80mKuR-ORZKl-12" edge="1">
                    <mxGeometry relative="1" as="geometry">
                        <Array as="points">
                            <mxPoint x="440" y="200"/>
                            <mxPoint x="440" y="97"/>
                        </Array>
                    </mxGeometry>
                </mxCell>
                <mxCell id="-mRNOfv_80mKuR-ORZKl-3" value="BOTÃO ACESSAR DISCIPLINA" style="rounded=1;whiteSpace=wrap;html=1;" parent="1" vertex="1">
                    <mxGeometry x="110" y="175" width="180" height="50" as="geometry"/>
                </mxCell>
                <mxCell id="-mRNOfv_80mKuR-ORZKl-25" style="edgeStyle=orthogonalEdgeStyle;rounded=0;orthogonalLoop=1;jettySize=auto;html=1;entryX=0;entryY=0.5;entryDx=0;entryDy=0;" parent="1" source="-mRNOfv_80mKuR-ORZKl-4" target="-mRNOfv_80mKuR-ORZKl-12" edge="1">
                    <mxGeometry relative="1" as="geometry">
                        <Array as="points">
                            <mxPoint x="450" y="275"/>
                            <mxPoint x="450" y="127"/>
                        </Array>
                    </mxGeometry>
                </mxCell>
                <mxCell id="-mRNOfv_80mKuR-ORZKl-4" value="BOTÃO ACESSAR PROFESSOR" style="rounded=1;whiteSpace=wrap;html=1;" parent="1" vertex="1">
                    <mxGeometry x="110" y="250" width="180" height="50" as="geometry"/>
                </mxCell>
                <mxCell id="-mRNOfv_80mKuR-ORZKl-56" style="edgeStyle=orthogonalEdgeStyle;rounded=0;orthogonalLoop=1;jettySize=auto;html=1;entryX=0;entryY=0.5;entryDx=0;entryDy=0;" parent="1" source="-mRNOfv_80mKuR-ORZKl-5" target="-mRNOfv_80mKuR-ORZKl-52" edge="1">
                    <mxGeometry relative="1" as="geometry"/>
                </mxCell>
                <mxCell id="-mRNOfv_80mKuR-ORZKl-57" style="edgeStyle=orthogonalEdgeStyle;rounded=0;orthogonalLoop=1;jettySize=auto;html=1;entryX=0;entryY=0.5;entryDx=0;entryDy=0;" parent="1" source="-mRNOfv_80mKuR-ORZKl-5" target="-mRNOfv_80mKuR-ORZKl-51" edge="1">
                    <mxGeometry relative="1" as="geometry"/>
                </mxCell>
                <mxCell id="-mRNOfv_80mKuR-ORZKl-5" value="BOTÃO ACESSAR HISTÓRICO" style="rounded=1;whiteSpace=wrap;html=1;" parent="1" vertex="1">
                    <mxGeometry x="110" y="320" width="180" height="50" as="geometry"/>
                </mxCell>
                <mxCell id="-mRNOfv_80mKuR-ORZKl-10" value="TELA DE CADASTRO" style="whiteSpace=wrap;html=1;aspect=fixed;" parent="1" vertex="1">
                    <mxGeometry x="767.06" y="77" width="100" height="100" as="geometry"/>
                </mxCell>
                <mxCell id="-mRNOfv_80mKuR-ORZKl-22" style="edgeStyle=orthogonalEdgeStyle;rounded=0;orthogonalLoop=1;jettySize=auto;html=1;" parent="1" source="-mRNOfv_80mKuR-ORZKl-12" target="-mRNOfv_80mKuR-ORZKl-10" edge="1">
                    <mxGeometry relative="1" as="geometry">
                        <mxPoint x="747.0599999999995" y="192" as="targetPoint"/>
                    </mxGeometry>
                </mxCell>
                <mxCell id="-mRNOfv_80mKuR-ORZKl-34" style="edgeStyle=orthogonalEdgeStyle;rounded=0;orthogonalLoop=1;jettySize=auto;html=1;" parent="1" source="-mRNOfv_80mKuR-ORZKl-15" target="-mRNOfv_80mKuR-ORZKl-10" edge="1">
                    <mxGeometry relative="1" as="geometry">
                        <mxPoint x="630" y="360" as="targetPoint"/>
                        <Array as="points">
                            <mxPoint x="630" y="550"/>
                            <mxPoint x="630" y="530"/>
                            <mxPoint x="817" y="530"/>
                        </Array>
                    </mxGeometry>
                </mxCell>
                <mxCell id="-mRNOfv_80mKuR-ORZKl-42" style="edgeStyle=orthogonalEdgeStyle;rounded=0;orthogonalLoop=1;jettySize=auto;html=1;" parent="1" source="-mRNOfv_80mKuR-ORZKl-15" target="-mRNOfv_80mKuR-ORZKl-41" edge="1">
                    <mxGeometry relative="1" as="geometry">
                        <Array as="points">
                            <mxPoint x="600" y="620"/>
                            <mxPoint x="600" y="580"/>
                        </Array>
                    </mxGeometry>
                </mxCell>
                <mxCell id="-mRNOfv_80mKuR-ORZKl-15" value="LISTA DE TURMAS&lt;br&gt;&lt;br&gt;COM BOTÃO DE ADICIONAR, ATUALIZAR&amp;nbsp;&lt;br&gt;&lt;br&gt;&amp;nbsp;DELETAR&lt;br&gt;&lt;br&gt;VISUALIZAR TURMA" style="whiteSpace=wrap;html=1;aspect=fixed;" parent="1" vertex="1">
                    <mxGeometry x="370" y="504.38" width="151.25" height="151.25" as="geometry"/>
                </mxCell>
                <mxCell id="-mRNOfv_80mKuR-ORZKl-12" value="LISTA DE CADASTROS&amp;nbsp;&lt;br&gt;&lt;br&gt;COM BOTÃO DE ADICIONAR, ATUALIZAR&amp;nbsp;&lt;br&gt;&lt;br&gt;&amp;nbsp;DELETAR" style="whiteSpace=wrap;html=1;aspect=fixed;" parent="1" vertex="1">
                    <mxGeometry x="561.06" y="67" width="120" height="120" as="geometry"/>
                </mxCell>
                <mxCell id="-mRNOfv_80mKuR-ORZKl-36" style="edgeStyle=orthogonalEdgeStyle;rounded=0;orthogonalLoop=1;jettySize=auto;html=1;" parent="1" source="-mRNOfv_80mKuR-ORZKl-28" target="-mRNOfv_80mKuR-ORZKl-15" edge="1">
                    <mxGeometry relative="1" as="geometry">
                        <Array as="points">
                            <mxPoint x="200" y="470"/>
                            <mxPoint x="446" y="470"/>
                        </Array>
                    </mxGeometry>
                </mxCell>
                <mxCell id="-mRNOfv_80mKuR-ORZKl-28" value="BOTÃO ACESSAR TURMAS" style="rounded=1;whiteSpace=wrap;html=1;" parent="1" vertex="1">
                    <mxGeometry x="110" y="390" width="180" height="50" as="geometry"/>
                </mxCell>
                <mxCell id="-mRNOfv_80mKuR-ORZKl-46" value="" style="edgeStyle=orthogonalEdgeStyle;rounded=0;orthogonalLoop=1;jettySize=auto;html=1;" parent="1" source="-mRNOfv_80mKuR-ORZKl-40" target="-mRNOfv_80mKuR-ORZKl-44" edge="1">
                    <mxGeometry relative="1" as="geometry"/>
                </mxCell>
                <mxCell id="-mRNOfv_80mKuR-ORZKl-40" value="NOME E FOTO DE TODOS OS ALUNOS DA TURMA" style="whiteSpace=wrap;html=1;aspect=fixed;" parent="1" vertex="1">
                    <mxGeometry x="890" y="520" width="120" height="120" as="geometry"/>
                </mxCell>
                <mxCell id="-mRNOfv_80mKuR-ORZKl-43" style="edgeStyle=orthogonalEdgeStyle;rounded=0;orthogonalLoop=1;jettySize=auto;html=1;entryX=0;entryY=0.5;entryDx=0;entryDy=0;" parent="1" source="-mRNOfv_80mKuR-ORZKl-41" target="-mRNOfv_80mKuR-ORZKl-40" edge="1">
                    <mxGeometry relative="1" as="geometry"/>
                </mxCell>
                <mxCell id="-mRNOfv_80mKuR-ORZKl-41" value="AO CLICAR NUMA TURMA" style="shape=parallelogram;perimeter=parallelogramPerimeter;whiteSpace=wrap;html=1;fixedSize=1;strokeColor=#000000;strokeWidth=1;fillColor=none;" parent="1" vertex="1">
                    <mxGeometry x="660" y="550" width="140" height="60" as="geometry"/>
                </mxCell>
                <mxCell id="-mRNOfv_80mKuR-ORZKl-47" value="" style="edgeStyle=orthogonalEdgeStyle;rounded=0;orthogonalLoop=1;jettySize=auto;html=1;" parent="1" source="-mRNOfv_80mKuR-ORZKl-44" target="-mRNOfv_80mKuR-ORZKl-45" edge="1">
                    <mxGeometry relative="1" as="geometry"/>
                </mxCell>
                <mxCell id="-mRNOfv_80mKuR-ORZKl-44" value="AO CLICAR NUM ALUNO" style="shape=parallelogram;perimeter=parallelogramPerimeter;whiteSpace=wrap;html=1;fixedSize=1;strokeColor=#000000;strokeWidth=1;fillColor=none;" parent="1" vertex="1">
                    <mxGeometry x="880" y="410" width="140" height="60" as="geometry"/>
                </mxCell>
                <mxCell id="-mRNOfv_80mKuR-ORZKl-45" value="HISTÓRICO DO ALUNO" style="whiteSpace=wrap;html=1;aspect=fixed;" parent="1" vertex="1">
                    <mxGeometry x="890" y="208" width="120" height="120" as="geometry"/>
                </mxCell>
                <mxCell id="-mRNOfv_80mKuR-ORZKl-48" value="LISTA DE HISTÓRICOS COM FILTROS&lt;br&gt;" style="whiteSpace=wrap;html=1;aspect=fixed;" parent="1" vertex="1">
                    <mxGeometry x="650" y="300" width="140" height="140" as="geometry"/>
                </mxCell>
                <mxCell id="-mRNOfv_80mKuR-ORZKl-53" value="" style="edgeStyle=orthogonalEdgeStyle;rounded=0;orthogonalLoop=1;jettySize=auto;html=1;" parent="1" source="-mRNOfv_80mKuR-ORZKl-51" target="-mRNOfv_80mKuR-ORZKl-48" edge="1">
                    <mxGeometry relative="1" as="geometry"/>
                </mxCell>
                <mxCell id="-mRNOfv_80mKuR-ORZKl-51" value="LISTAR&lt;br&gt;" style="rounded=1;whiteSpace=wrap;html=1;" parent="1" vertex="1">
                    <mxGeometry x="414" y="370" width="180" height="50" as="geometry"/>
                </mxCell>
                <mxCell id="-mRNOfv_80mKuR-ORZKl-55" style="edgeStyle=orthogonalEdgeStyle;rounded=0;orthogonalLoop=1;jettySize=auto;html=1;entryX=0.25;entryY=1;entryDx=0;entryDy=0;" parent="1" source="-mRNOfv_80mKuR-ORZKl-52" target="-mRNOfv_80mKuR-ORZKl-10" edge="1">
                    <mxGeometry relative="1" as="geometry">
                        <Array as="points">
                            <mxPoint x="504" y="270"/>
                            <mxPoint x="730" y="270"/>
                            <mxPoint x="730" y="177"/>
                        </Array>
                    </mxGeometry>
                </mxCell>
                <mxCell id="-mRNOfv_80mKuR-ORZKl-52" value="CADASTRAR" style="rounded=1;whiteSpace=wrap;html=1;" parent="1" vertex="1">
                    <mxGeometry x="414" y="310" width="180" height="50" as="geometry"/>
                </mxCell>
                <mxCell id="3" value="TELA CADASTROS" style="text;html=1;strokeColor=none;fillColor=none;align=center;verticalAlign=middle;whiteSpace=wrap;rounded=0;" vertex="1" parent="1">
                    <mxGeometry x="140" y="58" width="120" height="30" as="geometry"/>
                </mxCell>
            </root>
        </mxGraphModel>
    </diagram>
</mxfile>